<?xml version="1.0" encoding="UTF-8"?>
<svg xmlns="http://www.w3.org/2000/svg" xmlns:xlink="http://www.w3.org/1999/xlink" width="61px" height="92px" viewBox="0 0 61 91" version="1.1">
<g id="surface1">
<path style=" stroke:none;fill-rule:nonzero;fill:rgb(100%,100%,100%);fill-opacity:1;" d="M 58.890625 58.207031 L 58.890625 43.332031 L 56.316406 43.332031 C 56.058594 43.671875 56.230469 45.265625 55.414062 45.5625 C 52.6875 44.949219 55.179688 44.648438 54.234375 43.332031 C 54.125 43.332031 53.011719 43.332031 52.882812 43.332031 C 53.011719 43.332031 53.480469 43.886719 52.773438 44.480469 C 51.808594 50.726562 53.566406 53.257812 52.6875 58.207031 Z M 58.890625 58.207031 "/>
<path style=" stroke:none;fill-rule:nonzero;fill:rgb(100%,100%,100%);fill-opacity:1;" d="M 18.210938 47.945312 C 19.238281 47.476562 19.238281 46.414062 19.28125 45.710938 C 18.980469 45.371094 17.757812 45.351562 17.265625 45.4375 C 16.597656 45.988281 17.179688 46.988281 16.769531 47.644531 C 17.027344 48.199219 17.757812 47.816406 18.1875 47.945312 Z M 18.210938 47.945312 "/>
<path style=" stroke:none;fill-rule:nonzero;fill:rgb(100%,100%,100%);fill-opacity:1;" d="M 24.046875 55.316406 L 24.347656 55.402344 C 24.628906 55.46875 24.992188 55.46875 25.292969 55.339844 C 25.207031 55.148438 25.121094 54.957031 24.992188 54.808594 C 24.671875 54.957031 24.347656 55.128906 24.046875 55.316406 Z M 24.046875 55.316406 "/>
<path style=" stroke:none;fill-rule:nonzero;fill:rgb(100%,100%,100%);fill-opacity:1;" d="M 27.847656 51.449219 C 27.117188 51.472656 26.515625 52.511719 25.894531 52.066406 C 26.261719 51.066406 27.054688 50.238281 27.398438 49.261719 C 28 47.921875 28.964844 45.03125 28.535156 43.3125 L 25.765625 43.3125 C 24.863281 43.566406 25.53125 45.859375 24.605469 46.011719 C 24.347656 45.371094 24.433594 44.628906 23.707031 43.3125 L 22.203125 43.3125 C 22.308594 44.289062 22.160156 44.351562 22.074219 44.4375 C 21.558594 44.457031 21.601562 43.671875 20.957031 44.097656 C 20.398438 43.992188 20.25 44.90625 19.648438 44.714844 C 19.453125 44.246094 18.875 43.609375 18.253906 43.992188 C 18.789062 45.140625 21.492188 45.628906 20.207031 47.519531 C 19.949219 48.070312 20.164062 48.859375 19.453125 49.15625 C 18.230469 48.835938 17.113281 48.367188 15.890625 48.070312 C 16.019531 48.519531 15.675781 49.15625 15.804688 49.601562 C 17.09375 49.773438 17.480469 51.109375 18.59375 51.492188 C 18.832031 51.664062 18.9375 51.875 18.875 52.152344 C 18.101562 52.46875 17.265625 51.789062 16.554688 51.492188 C 16.382812 51.558594 16.46875 51.746094 16.449219 51.875 C 17.113281 52.660156 19.28125 52.320312 18.59375 53.957031 C 17.996094 55.296875 18.125 57.484375 16.105469 57.65625 C 15.910156 58.058594 16.40625 58.015625 16.578125 58.207031 C 18.316406 58.378906 20.140625 56.722656 21.601562 58.101562 C 22.09375 58.101562 22.71875 57.804688 23.105469 58.1875 L 27.503906 58.1875 C 28.34375 56.613281 27.699219 55.59375 27.761719 54.148438 C 27.871094 53.789062 26.730469 53.40625 25.894531 53.617188 C 25.746094 53.511719 25.851562 53.320312 25.832031 53.152344 C 26.390625 52.492188 28.664062 53.46875 28.148438 51.898438 C 28.148438 51.769531 28.148438 51.472656 27.871094 51.449219 Z M 18.550781 49.8125 L 18.167969 49.8125 C 17.628906 49.621094 16.449219 49.347656 16.382812 48.710938 C 17.136719 48.898438 17.800781 49.28125 18.550781 49.539062 Z M 23.554688 45.179688 L 23.425781 46.753906 C 23.363281 47.007812 23.167969 47.496094 22.738281 47.304688 C 22.203125 47.433594 22.480469 46.773438 22.417969 46.542969 C 22.890625 46.136719 23.019531 45.289062 23.554688 45.179688 Z M 23.578125 49.730469 C 23.148438 50.027344 22.394531 49.921875 21.902344 49.835938 C 22.03125 49.644531 22.050781 49.410156 22.074219 49.199219 C 22.394531 48.941406 22.71875 48.390625 23.296875 48.582031 C 23.535156 48.898438 23.640625 49.304688 23.578125 49.75 Z M 21.515625 45.371094 C 21.558594 44.796875 22.265625 45.03125 22.652344 44.839844 L 22.738281 45.097656 C 22.375 45.371094 22.117188 45.96875 21.535156 45.753906 L 21.535156 45.371094 Z M 21.429688 51.621094 C 22.117188 51.769531 22.867188 51.238281 23.382812 51.789062 C 23.148438 52.257812 23.148438 53.066406 22.351562 52.621094 C 21.988281 52.34375 21.191406 52.46875 21.257812 51.789062 Z M 20.570312 44.925781 C 20.699219 44.734375 20.871094 44.351562 21.234375 44.480469 C 21.214844 44.777344 21.042969 45.328125 20.570312 45.097656 Z M 20.035156 50.898438 C 20.484375 50.644531 21.105469 50.683594 21 51.535156 L 20.269531 51.535156 C 20.140625 51.367188 19.925781 51.195312 20.035156 50.898438 Z M 18.339844 50.578125 C 18.464844 50.34375 18.746094 50.496094 18.9375 50.453125 C 19.003906 51.003906 19.882812 50.324219 19.539062 51.046875 L 19.433594 51.046875 C 19.066406 51.238281 18.464844 51.046875 18.339844 50.578125 Z M 19.367188 56.785156 C 18.722656 55.679688 19.476562 53.851562 19.648438 52.8125 C 19.796875 52.660156 19.949219 52.449219 20.207031 52.535156 C 20.378906 53.109375 19.539062 53.492188 20.097656 53.980469 C 20.679688 53.808594 21.449219 54.339844 22.050781 53.875 C 21.75 53.382812 21.105469 53.617188 20.65625 53.425781 L 20.65625 53.152344 L 21.964844 53.066406 C 22.179688 53.34375 23.105469 53.597656 22.890625 54.128906 C 22.007812 55.359375 20.507812 56.0625 19.324219 56.761719 Z M 25.316406 55.359375 C 25.550781 55.957031 25.59375 56.699219 25.316406 57.167969 L 22.332031 57.273438 L 22.332031 56.890625 C 22.847656 56.210938 23.425781 55.722656 24.089844 55.316406 L 23.492188 55.148438 C 22.632812 54.574219 24.648438 53.746094 24.949219 53.511719 L 25.765625 54.785156 C 25.746094 55.085938 25.574219 55.234375 25.335938 55.339844 Z M 24.132812 48.582031 C 23.511719 46.964844 25.746094 46.308594 26.601562 45.308594 L 27.761719 45.945312 C 27.632812 47.050781 25.59375 47.265625 25.722656 48.453125 C 25.9375 48.625 26.132812 48.941406 26.410156 48.984375 C 26.515625 49.28125 26.261719 49.472656 26.066406 49.644531 C 25.164062 50.003906 24.714844 49.132812 24.15625 48.558594 Z M 24.132812 48.582031 "/>
<path style=" stroke:none;fill-rule:nonzero;fill:rgb(100%,100%,100%);fill-opacity:1;" d="M 6.378906 44.925781 C 3.632812 44.757812 2.152344 45.03125 2.109375 45.011719 L 2.109375 47.179688 L 2.621094 47.179688 C 3.246094 47.371094 3.675781 47.371094 4.296875 47.371094 C 6.617188 47.605469 8.546875 47.265625 10.84375 47.136719 C 10.585938 47.050781 10.328125 46.988281 10.09375 47.007812 C 9.707031 46.710938 9.449219 46.519531 9.558594 46.074219 C 10.160156 45.4375 11.273438 45.96875 11.984375 45.585938 C 12.605469 45.820312 12.199219 46.5 12.347656 46.925781 C 12.285156 47.050781 12.21875 47.03125 12.132812 47.09375 C 12.84375 47.09375 13.59375 47.09375 14.386719 47.179688 L 14.386719 44.949219 C 10.972656 44.734375 8.570312 45.054688 6.378906 44.90625 Z M 6.378906 44.925781 "/>
<path style=" stroke:none;fill-rule:nonzero;fill:rgb(100%,100%,100%);fill-opacity:1;" d="M 32.207031 44.183594 C 33.324219 44.457031 34.484375 44.585938 35.664062 44.628906 L 35.664062 43.332031 L 30.726562 43.332031 C 30.726562 44.351562 29.929688 45.796875 29.929688 45.796875 C 30.359375 45.796875 30.789062 45.820312 31.175781 46.011719 L 31.175781 46.285156 C 30.769531 46.179688 30.359375 46.136719 29.929688 46.117188 L 29.929688 50.34375 L 30.46875 50.34375 C 30.488281 50.453125 30.597656 50.496094 30.574219 50.621094 L 30.46875 50.8125 L 29.929688 50.8125 L 29.929688 51.324219 C 30.125 51.324219 30.316406 51.386719 30.46875 51.324219 C 30.46875 51.34375 30.46875 51.367188 30.511719 51.386719 C 30.769531 51.429688 30.941406 51.769531 31.261719 51.597656 L 31.261719 51.875 L 30.683594 51.875 C 30.574219 51.875 30.425781 51.855469 30.339844 51.746094 C 30.210938 51.789062 30.058594 51.832031 29.910156 51.8125 L 29.910156 52.195312 C 30.339844 52.046875 30.917969 52.214844 31.328125 52.238281 C 31.371094 52.34375 31.476562 52.386719 31.433594 52.511719 L 31.328125 52.703125 C 30.898438 52.554688 30.359375 52.640625 29.910156 52.578125 L 29.910156 55.847656 C 30.058594 55.871094 30.210938 55.914062 30.339844 55.957031 C 30.382812 56.082031 30.511719 56.148438 30.511719 56.296875 C 30.339844 56.402344 30.125 56.421875 29.910156 56.382812 L 29.910156 58.207031 L 35.640625 58.207031 L 35.640625 56.382812 C 35.425781 56.421875 34.867188 56.445312 34.71875 56.359375 C 34.71875 56.210938 35.296875 55.0625 35.449219 55.042969 L 35.640625 52.597656 C 35.191406 52.640625 34.652344 52.554688 34.226562 52.726562 L 34.117188 52.535156 C 34.097656 52.40625 34.183594 52.363281 34.226562 52.257812 C 34.652344 52.257812 35.210938 52.066406 35.640625 52.214844 L 35.640625 51.832031 C 35.40625 51.855469 35.148438 51.789062 34.996094 51.640625 C 34.996094 51.515625 35.082031 51.472656 35.105469 51.367188 C 35.277344 51.40625 35.46875 51.367188 35.640625 51.367188 L 35.640625 50.855469 L 35.105469 50.855469 L 34.996094 50.664062 C 34.996094 50.535156 35.082031 50.496094 35.105469 50.386719 L 35.640625 50.386719 L 35.640625 46.160156 C 35.234375 46.179688 34.804688 46.242188 34.417969 46.328125 L 34.417969 46.050781 C 34.804688 45.882812 35.234375 45.839844 35.640625 45.839844 L 35.640625 45.011719 C 34.632812 44.949219 33.601562 44.839844 32.65625 44.777344 C 32.421875 44.648438 32.054688 44.671875 31.90625 44.417969 C 31.96875 44.246094 32.078125 44.226562 32.207031 44.226562 Z M 35.296875 47.304688 L 35.296875 48.15625 C 34.910156 48.113281 34.417969 48.285156 34.074219 48.027344 C 34.246094 47.414062 34.890625 47.457031 35.296875 47.328125 Z M 30.660156 46.734375 L 31.414062 46.734375 L 31.414062 47.007812 L 30.660156 47.007812 Z M 31.863281 47.816406 C 31.5625 48.050781 31.132812 48.15625 30.769531 48.199219 L 30.554688 47.496094 C 30.960938 47.457031 31.714844 47.265625 31.863281 47.816406 Z M 30.1875 54.234375 L 30.1875 53.957031 L 31.175781 53.957031 L 31.175781 54.234375 Z M 34.484375 57.335938 C 34.140625 58.125 33.515625 57.550781 33.085938 57.335938 C 32.722656 57.1875 32.441406 58.230469 32.097656 57.484375 C 32.097656 57.316406 32.183594 57.230469 32.207031 57.082031 C 33 56.550781 33.816406 56.976562 34.484375 57.335938 Z M 33.6875 50.917969 L 32.25 50.917969 L 32.25 50.386719 L 33.6875 50.386719 Z M 33.410156 52.917969 L 33.410156 53.683594 C 33.152344 53.640625 32.828125 53.808594 32.636719 53.554688 C 32.679688 52.960938 33.152344 53 33.410156 52.917969 Z M 32.894531 46.839844 C 33.109375 46.988281 33.539062 47.007812 33.300781 47.5625 C 33.042969 47.796875 32.851562 47.199219 32.613281 47.113281 Z M 32.871094 45.753906 L 32.464844 46.222656 C 32.292969 46.222656 32.011719 45.734375 31.949219 45.519531 C 32.078125 45.371094 32.808594 45.585938 32.871094 45.753906 Z M 33.625 54.746094 L 33.625 55.402344 C 32.742188 55.699219 31.925781 56.65625 30.941406 56.230469 L 30.941406 55.636719 C 31.328125 55.46875 31.777344 56 32.097656 55.148438 C 32.636719 55.210938 33.066406 54.425781 33.601562 54.722656 Z M 31.992188 49.429688 C 31.5 49.558594 30.855469 49.664062 30.402344 49.367188 C 30.640625 48.859375 31.175781 49.15625 31.5625 49.089844 C 31.691406 49.261719 31.96875 49.070312 31.992188 49.453125 Z M 31.992188 49.429688 "/>
<path style=" stroke:none;fill-rule:nonzero;fill:rgb(100%,100%,100%);fill-opacity:1;" d="M 6.832031 44.246094 C 9.257812 44.246094 11.941406 44.035156 14.410156 44.226562 L 14.410156 43.3125 L 2.085938 43.3125 C 2.085938 43.695312 2.085938 44.289062 2.085938 44.289062 C 3.632812 44.035156 5.542969 44.265625 6.832031 44.265625 Z M 6.832031 44.246094 "/>
<path style=" stroke:none;fill-rule:nonzero;fill:rgb(100%,100%,100%);fill-opacity:1;" d="M 4.941406 48.667969 C 4.253906 48.667969 3.503906 48.007812 2.816406 47.773438 L 2.472656 47.773438 L 2.128906 47.859375 L 2.128906 58.207031 C 2.128906 58.207031 14.429688 58.207031 14.429688 58.207031 L 14.429688 47.730469 C 11.210938 47.371094 8.417969 48.898438 4.941406 48.667969 Z M 4.941406 48.667969 "/>
<path style=" stroke:none;fill-rule:nonzero;fill:rgb(100%,100%,100%);fill-opacity:1;" d="M 51.269531 51.257812 C 50.542969 49.539062 52.195312 43.777344 49.53125 43.3125 C 49.230469 43.269531 48.996094 43.394531 48.757812 43.585938 C 49.230469 43.90625 49.574219 44.394531 49.660156 44.96875 C 49.039062 46.328125 47.75 44.671875 46.871094 45.117188 L 46.871094 46.222656 C 46.503906 46.519531 46.246094 46.925781 45.730469 46.773438 C 45.410156 46.433594 45.003906 46.179688 45.152344 45.671875 C 45.472656 45.011719 46.183594 45.265625 46.65625 44.96875 C 46.65625 44.96875 46.65625 44.949219 46.632812 44.925781 C 45.753906 44.714844 45.859375 43.355469 44.378906 43.355469 L 41.546875 43.355469 C 40.214844 43.757812 38.605469 44.5 37.082031 43.355469 L 37.359375 45.203125 L 37.550781 45.839844 L 37.550781 46.390625 C 37.550781 46.390625 38.21875 46.964844 38.21875 46.964844 L 37.53125 47.5625 L 37.765625 48.984375 C 38.28125 49.132812 38.863281 49.15625 38.882812 49.644531 C 38.796875 50.429688 38.195312 51.324219 38.175781 52.128906 C 38.132812 53.128906 38.691406 57.253906 38.691406 58.230469 C 39.226562 58.1875 41.824219 58.082031 42.363281 57.804688 C 42.363281 57.804688 43.089844 58.207031 43.089844 58.230469 C 44.015625 58.316406 45.21875 58.546875 44.917969 56.953125 L 44.25 52.746094 C 43.457031 50.578125 44.917969 50.046875 45.410156 50.027344 L 45.796875 50.367188 C 45.667969 50.792969 45.582031 51.214844 45.558594 51.597656 C 45.667969 51.769531 45.730469 51.9375 45.6875 52.195312 C 45.710938 52.449219 45.644531 52.597656 45.558594 52.703125 C 45.710938 54.660156 46.65625 56.359375 46.675781 58.230469 L 49.167969 58.230469 C 49.167969 58.230469 50.070312 57.507812 50.070312 57.507812 L 49.875 55.765625 L 49.984375 54.128906 L 49.917969 51.089844 C 50.304688 51.175781 50.671875 51.28125 51.097656 51.449219 Z M 38.90625 46.457031 C 38.410156 46.03125 38.109375 45.5625 38.21875 44.90625 C 38.519531 44.183594 39.570312 44.417969 40 44.734375 C 40.320312 45.222656 40.921875 45.796875 40 46.03125 C 40.085938 47.199219 39.226562 47.007812 38.863281 46.457031 Z M 41.71875 56.0625 L 41.71875 55.128906 L 41.007812 54.46875 L 40.707031 53.46875 C 40.363281 51.9375 40.75 50.175781 41.03125 49.601562 C 41.03125 49.601562 41.03125 49.601562 41.007812 49.601562 C 40.75 49.515625 40.34375 49.75 40.191406 49.429688 C 40.429688 49.050781 40.085938 48.476562 40.472656 48.15625 C 40.75 48.113281 41.460938 48.113281 41.632812 48.328125 C 41.632812 48.644531 41.609375 49.070312 41.308594 49.390625 C 41.609375 49.324219 41.933594 49.390625 42.167969 49.601562 C 42.105469 52.511719 42.382812 54.488281 42.621094 57.144531 L 41.71875 56.039062 Z M 43.414062 46.03125 C 43.5625 46.625 42.726562 46.734375 42.425781 46.773438 C 42.082031 46.582031 41.632812 45.925781 41.867188 45.351562 C 42.105469 45.117188 42.296875 44.820312 42.726562 44.949219 C 42.960938 45.328125 43.628906 45.5 43.433594 46.03125 Z M 44.9375 48.136719 C 44.832031 48.558594 44.292969 49.050781 43.628906 48.941406 C 43.285156 48.6875 43.414062 48.21875 43.328125 47.859375 C 43.414062 47.605469 44.144531 47.414062 44.464844 47.476562 C 44.59375 47.644531 45.046875 47.878906 44.9375 48.136719 Z M 45.988281 48.921875 C 46.140625 48.710938 46.675781 48.433594 46.976562 48.476562 C 47.277344 48.601562 47.492188 49.175781 47.363281 49.582031 C 47.34375 49.898438 46.976562 49.835938 46.71875 49.835938 C 46.355469 49.707031 45.882812 49.347656 45.988281 48.921875 Z M 47.816406 55.59375 C 47.515625 55.933594 47.601562 57.464844 46.847656 56.679688 C 46.054688 54.617188 47.128906 53.191406 47.300781 51.367188 C 47.773438 50.875 48.265625 50.683594 48.566406 50.8125 C 48.628906 50.8125 49.015625 51.746094 49.082031 51.769531 C 49.167969 53.023438 48.394531 53.085938 49.144531 55.167969 C 48.953125 55.507812 48.03125 55.339844 47.816406 55.59375 Z M 49.554688 50.152344 C 49.273438 50.132812 48.628906 50.070312 48.585938 49.664062 C 48.523438 49.21875 48.5 48.625 49.46875 48.792969 C 50.199219 48.984375 50.476562 49.984375 49.554688 50.152344 Z M 49.554688 50.152344 "/>
<path style=" stroke:none;fill-rule:nonzero;fill:rgb(100%,100%,100%);fill-opacity:1;" d="M 40.234375 32.875 C 40.234375 33.492188 40.621094 33.769531 41.460938 33.769531 C 42.296875 33.769531 42.320312 33.726562 42.640625 33.40625 C 42.832031 33.238281 42.917969 32.941406 42.917969 32.492188 L 42.917969 31.921875 L 41.4375 31.921875 C 40.644531 31.921875 40.257812 32.238281 40.257812 32.855469 Z M 40.234375 32.875 "/>
<path style=" stroke:none;fill-rule:nonzero;fill:rgb(100%,100%,100%);fill-opacity:1;" d="M 44.851562 18.488281 L 42.703125 18.488281 C 42.191406 18.488281 41.78125 18.914062 41.78125 19.402344 L 41.78125 23.25 C 41.78125 23.757812 42.191406 24.164062 42.703125 24.164062 L 44.875 24.164062 C 45.386719 24.164062 45.796875 23.757812 45.796875 23.25 L 45.796875 19.402344 C 45.796875 18.894531 45.367188 18.488281 44.875 18.488281 Z M 44.851562 18.488281 "/>
<path style=" stroke:none;fill-rule:nonzero;fill:rgb(100%,100%,100%);fill-opacity:1;" d="M 29.285156 29.730469 C 28.128906 29.730469 27.957031 30.707031 27.957031 31.730469 C 27.957031 32.75 28.148438 33.726562 29.285156 33.726562 C 30.425781 33.726562 30.617188 32.75 30.617188 31.730469 C 30.617188 30.707031 30.445312 29.730469 29.285156 29.730469 Z M 29.285156 29.730469 "/>
<path style=" stroke:none;fill-rule:nonzero;fill:rgb(100%,100%,100%);fill-opacity:1;" d="M 2.066406 1.976562 L 2.066406 40.71875 L 58.933594 40.71875 L 58.933594 1.976562 Z M 19.5625 17.871094 C 19.5625 17.597656 19.777344 17.363281 20.078125 17.363281 L 20.3125 17.363281 C 20.59375 17.363281 20.828125 17.574219 20.828125 17.871094 L 20.828125 24.183594 L 24.84375 24.183594 C 25.121094 24.183594 25.359375 24.375 25.359375 24.652344 L 25.359375 24.84375 C 25.359375 25.121094 25.144531 25.3125 24.84375 25.3125 L 19.582031 25.3125 L 19.582031 17.871094 Z M 11.039062 18.023438 C 11.039062 18.296875 10.800781 18.488281 10.523438 18.488281 L 8.289062 18.488281 L 8.289062 24.800781 C 8.289062 25.078125 8.054688 25.3125 7.773438 25.3125 L 7.539062 25.3125 C 7.261719 25.3125 7.023438 25.097656 7.023438 24.800781 L 7.023438 18.488281 L 4.8125 18.488281 C 4.535156 18.488281 4.296875 18.296875 4.296875 18.023438 L 4.296875 17.832031 C 4.296875 17.554688 4.535156 17.363281 4.8125 17.363281 L 10.523438 17.363281 C 10.800781 17.363281 11.039062 17.554688 11.039062 17.832031 Z M 12.070312 24.820312 L 12.070312 17.832031 C 12.070312 17.554688 12.285156 17.363281 12.5625 17.363281 L 17.523438 17.363281 C 17.800781 17.363281 18.039062 17.554688 18.039062 17.832031 L 18.039062 18.023438 C 18.039062 18.296875 17.824219 18.488281 17.523438 18.488281 L 13.335938 18.488281 L 13.335938 20.804688 L 17.199219 20.804688 C 17.480469 20.804688 17.714844 20.996094 17.714844 21.273438 L 17.714844 21.464844 C 17.714844 21.742188 17.5 21.933594 17.199219 21.933594 L 13.335938 21.933594 L 13.335938 24.183594 L 17.757812 24.183594 C 18.039062 24.183594 18.273438 24.375 18.273438 24.652344 L 18.273438 24.84375 C 18.273438 25.121094 18.058594 25.3125 17.757812 25.3125 L 12.542969 25.3125 C 12.261719 25.3125 12.070312 25.121094 12.070312 24.84375 Z M 17.394531 34.429688 C 16.234375 34.429688 15.484375 34.128906 14.773438 33.429688 L 15.332031 32.875 C 15.976562 33.515625 16.554688 33.707031 17.414062 33.707031 C 18.273438 33.707031 19.21875 33.175781 19.21875 32.300781 C 19.21875 31.429688 19.089844 31.558594 18.851562 31.347656 C 18.59375 31.132812 18.402344 31.070312 17.84375 30.984375 L 16.941406 30.835938 C 16.339844 30.730469 15.867188 30.539062 15.527344 30.261719 C 15.140625 29.921875 14.945312 29.453125 14.945312 28.839844 C 14.945312 27.542969 15.890625 26.691406 17.394531 26.691406 C 18.894531 26.691406 19.023438 26.945312 19.667969 27.519531 L 19.132812 28.050781 C 18.660156 27.628906 18.144531 27.394531 17.351562 27.394531 C 16.554688 27.394531 15.738281 27.96875 15.738281 28.796875 C 15.738281 29.625 15.847656 29.476562 16.082031 29.667969 C 16.320312 29.878906 16.726562 30.027344 17.113281 30.09375 L 17.953125 30.21875 C 18.679688 30.328125 19.023438 30.476562 19.347656 30.75 C 19.777344 31.113281 19.992188 31.621094 19.992188 32.261719 C 19.992188 33.597656 18.9375 34.40625 17.351562 34.40625 Z M 25.617188 34.363281 L 24.84375 34.363281 L 24.84375 33.769531 C 24.457031 34.195312 23.941406 34.429688 23.339844 34.429688 C 22.738281 34.429688 22.289062 34.257812 21.964844 33.9375 C 21.578125 33.578125 21.429688 33.066406 21.429688 32.472656 L 21.429688 29.113281 L 22.203125 29.113281 L 22.203125 32.34375 C 22.203125 33.28125 22.695312 33.746094 23.492188 33.746094 C 24.285156 33.746094 24.820312 33.257812 24.820312 32.34375 L 24.820312 29.113281 L 25.59375 29.113281 L 25.59375 34.363281 Z M 31.390625 34.363281 L 30.617188 34.363281 L 30.617188 33.726562 C 30.1875 34.277344 29.695312 34.429688 29.117188 34.429688 C 28.535156 34.429688 28.105469 34.238281 27.828125 33.960938 C 27.289062 33.429688 27.183594 32.558594 27.183594 31.730469 C 27.183594 30.898438 27.289062 30.027344 27.828125 29.496094 C 28.105469 29.222656 28.578125 29.03125 29.117188 29.03125 C 29.652344 29.03125 30.1875 29.15625 30.617188 29.710938 L 30.617188 26.757812 L 31.390625 26.757812 Z M 32.335938 24.820312 C 32.335938 25.097656 32.121094 25.289062 31.820312 25.289062 L 26.601562 25.289062 C 26.324219 25.289062 26.132812 25.097656 26.132812 24.820312 L 26.132812 17.832031 C 26.132812 17.554688 26.347656 17.363281 26.625 17.363281 L 31.585938 17.363281 C 31.863281 17.363281 32.097656 17.554688 32.097656 17.832031 L 32.097656 18.023438 C 32.097656 18.296875 31.882812 18.488281 31.585938 18.488281 L 27.398438 18.488281 L 27.398438 20.804688 L 31.261719 20.804688 C 31.542969 20.804688 31.777344 20.996094 31.777344 21.273438 L 31.777344 21.464844 C 31.777344 21.742188 31.5625 21.933594 31.261719 21.933594 L 27.398438 21.933594 L 27.398438 24.183594 L 31.820312 24.183594 C 32.097656 24.183594 32.335938 24.375 32.335938 24.652344 L 32.335938 24.84375 Z M 36.222656 31.238281 L 34.183594 31.238281 L 34.183594 34.363281 L 33.367188 34.363281 L 33.367188 26.777344 L 36.222656 26.777344 C 37.617188 26.777344 38.582031 27.648438 38.582031 29.007812 C 38.582031 30.367188 37.617188 31.238281 36.222656 31.238281 Z M 39.3125 24.820312 C 39.3125 25.097656 39.097656 25.289062 38.796875 25.289062 L 35.492188 25.289062 C 34.441406 25.289062 33.625 24.398438 33.625 23.375 L 33.625 19.210938 C 33.625 18.191406 34.503906 17.363281 35.554688 17.363281 L 38.605469 17.363281 C 38.882812 17.363281 39.121094 17.554688 39.121094 17.832031 L 39.121094 18.023438 C 39.121094 18.296875 38.90625 18.488281 38.605469 18.488281 L 36.007812 18.488281 C 35.191406 18.488281 34.890625 18.957031 34.890625 19.574219 L 34.890625 23.144531 C 34.890625 23.929688 35.40625 24.183594 36.027344 24.183594 L 38.820312 24.183594 C 39.097656 24.183594 39.335938 24.375 39.335938 24.652344 L 39.335938 24.84375 Z M 43.671875 34.363281 L 42.898438 34.363281 L 42.898438 33.855469 C 42.46875 34.277344 42.082031 34.429688 41.375 34.429688 C 40.664062 34.429688 40.214844 34.277344 39.871094 33.9375 C 39.613281 33.683594 39.464844 33.28125 39.464844 32.875 C 39.464844 31.960938 40.105469 31.367188 41.289062 31.367188 L 42.875 31.367188 L 42.875 30.859375 C 42.875 30.09375 42.492188 29.710938 41.523438 29.710938 C 40.558594 29.710938 40.492188 29.878906 40.191406 30.304688 L 39.65625 29.816406 C 40.128906 29.199219 40.664062 29.03125 41.523438 29.03125 C 42.941406 29.03125 43.648438 29.644531 43.648438 30.773438 L 43.648438 34.34375 Z M 42.382812 25.289062 C 41.332031 25.289062 40.515625 24.441406 40.515625 23.417969 L 40.515625 19.191406 C 40.515625 18.171875 41.417969 17.339844 42.46875 17.339844 L 45.089844 17.339844 C 46.140625 17.339844 47.042969 18.171875 47.042969 19.191406 L 47.042969 23.417969 C 47.042969 24.441406 46.203125 25.289062 45.175781 25.289062 Z M 48.414062 30.113281 C 48.113281 29.816406 47.902344 29.730469 47.492188 29.730469 C 46.71875 29.730469 46.226562 30.347656 46.226562 31.132812 L 46.226562 34.363281 L 45.453125 34.363281 L 45.453125 29.113281 L 46.226562 29.113281 L 46.226562 29.753906 C 46.527344 29.304688 47.105469 29.050781 47.707031 29.050781 C 48.308594 29.050781 48.609375 29.179688 48.972656 29.539062 L 48.394531 30.113281 Z M 50.671875 34.363281 L 49.898438 34.363281 L 49.898438 29.113281 L 50.671875 29.113281 Z M 50.714844 27.628906 L 49.832031 27.628906 L 49.832031 26.757812 L 50.714844 26.757812 Z M 50.175781 19.507812 L 50.175781 24.800781 C 50.175781 25.078125 49.941406 25.3125 49.660156 25.3125 L 49.425781 25.3125 C 49.144531 25.3125 48.910156 25.097656 48.910156 24.800781 L 48.910156 17.832031 C 48.910156 17.554688 49.101562 17.363281 49.382812 17.363281 L 49.683594 17.363281 C 49.898438 17.363281 50.089844 17.554688 50.199219 17.722656 L 52.472656 20.890625 L 54.75 17.722656 C 54.878906 17.554688 55.027344 17.363281 55.265625 17.363281 L 55.566406 17.363281 C 55.84375 17.363281 56.039062 17.554688 56.039062 17.832031 L 56.039062 24.800781 C 56.039062 25.078125 55.824219 25.3125 55.523438 25.3125 L 55.285156 25.3125 C 55.007812 25.3125 54.769531 25.097656 54.769531 24.800781 L 54.769531 19.507812 L 53.074219 21.847656 C 52.925781 22.039062 52.796875 22.207031 52.539062 22.207031 L 52.367188 22.207031 C 52.109375 22.207031 51.980469 22.039062 51.828125 21.847656 L 50.132812 19.507812 Z M 54.167969 34.429688 C 53.269531 34.429688 52.582031 34.214844 52 33.664062 L 52.515625 33.152344 C 52.945312 33.597656 53.503906 33.769531 54.167969 33.769531 C 54.835938 33.769531 55.585938 33.449219 55.585938 32.832031 C 55.585938 32.21875 55.308594 32.113281 54.707031 32.070312 L 53.824219 31.984375 C 52.796875 31.898438 52.238281 31.429688 52.238281 30.582031 C 52.238281 29.730469 53.054688 29.050781 54.191406 29.050781 C 55.328125 29.050781 55.628906 29.242188 56.101562 29.625 L 55.585938 30.136719 C 55.199219 29.835938 54.726562 29.710938 54.167969 29.710938 C 53.609375 29.710938 52.988281 30.050781 52.988281 30.582031 C 52.988281 31.113281 53.246094 31.304688 53.910156 31.347656 L 54.769531 31.429688 C 55.695312 31.515625 56.335938 31.878906 56.335938 32.855469 C 56.335938 33.832031 55.457031 34.449219 54.191406 34.449219 Z M 54.167969 34.429688 "/>
<path style=" stroke:none;fill-rule:nonzero;fill:rgb(100%,100%,100%);fill-opacity:1;" d="M 36.136719 27.5 L 34.183594 27.5 L 34.183594 30.515625 L 36.136719 30.515625 C 37.101562 30.515625 37.765625 30.007812 37.765625 29.007812 C 37.765625 28.011719 37.101562 27.5 36.136719 27.5 Z M 36.136719 27.5 "/>
<path style=" stroke:none;fill-rule:nonzero;fill:rgb(100%,100%,100%);fill-opacity:1;" d="M 1.851562 65.796875 L 59.214844 65.796875 L 59.214844 66.285156 L 1.851562 66.285156 Z M 1.851562 65.796875 "/>
<path style=" stroke:none;fill-rule:nonzero;fill:rgb(100%,100%,100%);fill-opacity:1;" d="M 22.417969 76.167969 L 23.578125 76.167969 L 23.578125 81.4375 L 22.417969 81.4375 Z M 22.417969 76.167969 "/>
<path style=" stroke:none;fill-rule:nonzero;fill:rgb(100%,100%,100%);fill-opacity:1;" d="M 28.019531 76.167969 L 25.851562 76.167969 L 25.851562 81.4375 L 27.011719 81.4375 L 27.011719 79.863281 L 27.890625 79.863281 C 29.09375 79.863281 30.039062 79.226562 30.039062 78.015625 C 30.039062 76.804688 29.265625 76.1875 28 76.1875 M 27.957031 78.824219 L 27.03125 78.824219 L 27.03125 77.207031 L 27.933594 77.207031 C 28.515625 77.207031 28.878906 77.484375 28.878906 78.015625 C 28.878906 78.546875 28.535156 78.824219 27.957031 78.824219 "/>
<path style=" stroke:none;fill-rule:nonzero;fill:rgb(100%,100%,100%);fill-opacity:1;" d="M 36.050781 76.167969 L 33.882812 76.167969 L 33.882812 81.4375 L 35.039062 81.4375 L 35.039062 79.863281 L 35.921875 79.863281 C 37.125 79.863281 38.066406 79.226562 38.066406 78.015625 C 38.066406 76.804688 37.292969 76.1875 36.027344 76.1875 M 35.964844 78.824219 L 35.039062 78.824219 L 35.039062 77.207031 L 35.941406 77.207031 C 36.523438 77.207031 36.886719 77.484375 36.886719 78.015625 C 36.886719 78.546875 36.542969 78.824219 35.964844 78.824219 "/>
<path style=" stroke:none;fill-rule:nonzero;fill:rgb(100%,100%,100%);fill-opacity:1;" d="M 40.988281 76.125 L 42.0625 76.125 L 44.335938 81.4375 L 43.113281 81.4375 L 42.621094 80.246094 L 40.363281 80.246094 L 39.871094 81.4375 L 38.667969 81.4375 L 40.945312 76.125 Z M 42.234375 79.226562 L 41.523438 77.527344 L 40.816406 79.226562 Z M 42.234375 79.226562 "/>
<path style=" stroke:none;fill-rule:nonzero;fill:rgb(100%,100%,100%);fill-opacity:1;" d="M 45.816406 76.167969 L 48.242188 76.167969 C 48.929688 76.167969 49.445312 76.359375 49.789062 76.699219 C 50.089844 76.996094 50.242188 77.398438 50.242188 77.910156 C 50.242188 78.78125 49.769531 79.3125 49.101562 79.546875 L 50.414062 81.414062 L 49.039062 81.414062 L 47.902344 79.738281 L 46.976562 79.738281 L 46.976562 81.414062 L 45.816406 81.414062 L 45.816406 76.144531 Z M 48.179688 78.714844 C 48.757812 78.714844 49.082031 78.417969 49.082031 77.972656 C 49.082031 77.460938 48.738281 77.207031 48.15625 77.207031 L 47 77.207031 L 47 78.714844 Z M 48.179688 78.714844 "/>
<path style=" stroke:none;fill-rule:nonzero;fill:rgb(100%,100%,100%);fill-opacity:1;" d="M 52.238281 76.167969 L 53.398438 76.167969 L 53.398438 81.4375 L 52.238281 81.4375 Z M 52.238281 76.167969 "/>
<path style=" stroke:none;fill-rule:nonzero;fill:rgb(100%,100%,100%);fill-opacity:1;" d="M 57.667969 78.292969 C 56.746094 78.058594 56.53125 77.929688 56.53125 77.589844 C 56.53125 77.25 56.765625 77.121094 57.21875 77.121094 C 57.667969 77.121094 58.121094 77.3125 58.59375 77.632812 L 59.191406 76.761719 C 58.65625 76.335938 57.992188 76.101562 57.21875 76.101562 C 56.445312 76.101562 55.351562 76.738281 55.351562 77.695312 C 55.351562 78.652344 56.039062 79.035156 57.109375 79.3125 C 57.992188 79.546875 58.183594 79.695312 58.183594 79.992188 C 58.183594 80.289062 57.90625 80.5 57.410156 80.5 C 56.917969 80.5 56.292969 80.246094 55.824219 79.863281 L 55.136719 80.691406 C 55.78125 81.265625 56.59375 81.542969 57.390625 81.542969 C 58.527344 81.542969 59.34375 80.949219 59.34375 79.90625 C 59.34375 78.867188 58.742188 78.589844 57.648438 78.3125 "/>
<path style=" stroke:none;fill-rule:nonzero;fill:rgb(100%,100%,100%);fill-opacity:1;" d="M 9.835938 78.929688 C 7.496094 77.335938 6.230469 76.484375 5.046875 75.613281 C 4.492188 76.546875 4.148438 77.632812 4.148438 78.800781 C 4.148438 80.925781 5.21875 82.777344 6.875 83.902344 C 7.558594 82.5625 8.484375 81.074219 9.835938 78.929688 "/>
<path style=" stroke:none;fill-rule:nonzero;fill:rgb(100%,100%,100%);fill-opacity:1;" d="M 15.953125 80.160156 C 14.988281 81.183594 13.441406 81.332031 12.347656 80.628906 C 12.132812 80.5 10.609375 79.460938 10.609375 79.460938 C 8.933594 81.796875 8.074219 82.988281 7.132812 84.070312 C 8.074219 84.644531 9.191406 84.964844 10.371094 84.964844 C 13.699219 84.964844 16.425781 82.371094 16.597656 79.097656 C 16.46875 79.480469 16.234375 79.863281 15.953125 80.160156 "/>
<path style=" stroke:none;fill-rule:nonzero;fill:rgb(100%,100%,100%);fill-opacity:1;" d="M 14.816406 76.699219 C 14.601562 76.570312 13.269531 75.675781 13.269531 75.675781 C 12.175781 77.269531 12.003906 77.503906 11.167969 78.695312 C 11.167969 78.695312 12.628906 79.628906 12.820312 79.757812 C 13.570312 80.226562 14.558594 80.078125 15.160156 79.4375 C 15.375 79.183594 15.546875 78.886719 15.613281 78.566406 C 15.71875 77.972656 15.527344 77.1875 14.816406 76.71875 "/>
<path style=" stroke:none;fill-rule:nonzero;fill:rgb(100%,100%,100%);fill-opacity:1;" d="M 10.328125 78.164062 C 11.125 76.910156 11.832031 75.804688 12.949219 74.125 C 12.949219 74.125 15.3125 75.65625 15.503906 75.804688 C 15.761719 75.976562 15.933594 76.144531 16.082031 76.316406 C 15.117188 74.148438 12.929688 72.636719 10.394531 72.636719 C 7.859375 72.636719 6.574219 73.59375 5.433594 75.082031 C 6.679688 75.828125 8.183594 76.761719 10.351562 78.144531 "/>
<path style=" stroke:none;fill-rule:nonzero;fill:rgb(100%,100%,100%);fill-opacity:1;" d="M 4.511719 74.359375 C 4.511719 73.933594 4.167969 73.574219 3.738281 73.574219 C 3.308594 73.574219 2.945312 73.914062 2.945312 74.339844 C 2.945312 74.761719 3.289062 75.125 3.71875 75.125 C 4.148438 75.125 4.511719 74.785156 4.511719 74.359375 "/>
<path style=" stroke:none;fill-rule:nonzero;fill:rgb(100%,100%,100%);fill-opacity:1;" d="M 5.046875 72.105469 L 5.414062 71.851562 C 5.628906 71.703125 5.863281 71.726562 5.992188 71.914062 C 6.144531 72.128906 6.058594 72.363281 5.84375 72.511719 L 5.648438 72.636719 L 5.863281 72.9375 L 5.691406 73.042969 L 5.027344 72.105469 Z M 5.757812 72.339844 C 5.886719 72.257812 5.90625 72.128906 5.84375 72.023438 C 5.757812 71.914062 5.648438 71.914062 5.519531 72 L 5.328125 72.128906 L 5.5625 72.46875 Z M 5.757812 72.339844 "/>
<path style=" stroke:none;fill-rule:nonzero;fill:rgb(100%,100%,100%);fill-opacity:1;" d="M 6.59375 71.789062 C 6.464844 71.492188 6.59375 71.152344 6.917969 71.003906 C 7.238281 70.851562 7.582031 71.003906 7.710938 71.300781 C 7.839844 71.597656 7.710938 71.9375 7.390625 72.085938 C 7.066406 72.234375 6.722656 72.085938 6.59375 71.789062 M 7.496094 71.382812 C 7.410156 71.171875 7.175781 71.066406 6.980469 71.171875 C 6.765625 71.257812 6.703125 71.492188 6.789062 71.703125 C 6.875 71.914062 7.109375 72.023438 7.304688 71.914062 C 7.519531 71.832031 7.582031 71.597656 7.496094 71.382812 "/>
<path style=" stroke:none;fill-rule:nonzero;fill:rgb(100%,100%,100%);fill-opacity:1;" d="M 8.183594 70.554688 L 8.375 70.511719 L 8.589844 71.449219 L 9.171875 71.320312 L 9.214844 71.511719 L 8.417969 71.683594 Z M 8.183594 70.554688 "/>
<path style=" stroke:none;fill-rule:nonzero;fill:rgb(100%,100%,100%);fill-opacity:1;" d="M 9.816406 71.003906 L 9.320312 70.34375 L 9.558594 70.320312 L 9.902344 70.8125 L 10.203125 70.28125 L 10.4375 70.28125 L 10.007812 70.980469 L 10.03125 71.449219 L 9.835938 71.449219 Z M 9.816406 71.003906 "/>
<path style=" stroke:none;fill-rule:nonzero;fill:rgb(100%,100%,100%);fill-opacity:1;" d="M 11.253906 70.511719 L 10.886719 70.472656 L 10.910156 70.300781 L 11.832031 70.40625 L 11.8125 70.578125 L 11.46875 70.535156 L 11.339844 71.492188 L 11.144531 71.46875 Z M 11.253906 70.511719 "/>
<path style=" stroke:none;fill-rule:nonzero;fill:rgb(100%,100%,100%);fill-opacity:1;" d="M 12.519531 70.554688 L 13.355469 70.789062 L 13.292969 70.960938 L 12.671875 70.789062 L 12.585938 71.066406 L 13.140625 71.234375 L 13.078125 71.40625 L 12.519531 71.234375 L 12.433594 71.535156 L 13.078125 71.726562 L 13.011719 71.894531 L 12.199219 71.640625 Z M 12.519531 70.554688 "/>
<path style=" stroke:none;fill-rule:nonzero;fill:rgb(100%,100%,100%);fill-opacity:1;" d="M 13.742188 71.574219 C 13.894531 71.277344 14.238281 71.171875 14.558594 71.34375 C 14.753906 71.449219 14.816406 71.574219 14.882812 71.703125 L 14.6875 71.765625 C 14.644531 71.640625 14.582031 71.554688 14.472656 71.492188 C 14.28125 71.382812 14.042969 71.492188 13.9375 71.660156 C 13.828125 71.851562 13.871094 72.085938 14.085938 72.191406 C 14.214844 72.257812 14.324219 72.257812 14.453125 72.214844 L 14.496094 72.382812 C 14.324219 72.425781 14.171875 72.445312 13.980469 72.339844 C 13.679688 72.191406 13.59375 71.832031 13.742188 71.554688 "/>
<path style=" stroke:none;fill-rule:nonzero;fill:rgb(100%,100%,100%);fill-opacity:1;" d="M 15.546875 71.980469 L 15.695312 72.105469 L 15.398438 72.46875 L 15.804688 72.808594 L 16.125 72.445312 L 16.277344 72.574219 L 15.527344 73.445312 L 15.375 73.320312 L 15.695312 72.957031 L 15.269531 72.597656 L 14.96875 72.976562 L 14.796875 72.851562 Z M 15.546875 71.980469 "/>
<path style=" stroke:none;fill-rule:nonzero;fill:rgb(100%,100%,100%);fill-opacity:1;" d="M 16.898438 73.210938 L 17.007812 73.359375 L 16.75 74.316406 L 17.371094 73.828125 L 17.5 74 L 16.597656 74.699219 L 16.492188 74.550781 L 16.75 73.574219 L 16.105469 74.0625 L 15.976562 73.914062 Z M 16.898438 73.210938 "/>
<path style=" stroke:none;fill-rule:nonzero;fill:rgb(100%,100%,100%);fill-opacity:1;" d="M 16.847656 75.230469 L 17.863281 74.679688 L 17.957031 74.847656 L 16.941406 75.398438 Z M 16.847656 75.230469 "/>
<path style=" stroke:none;fill-rule:nonzero;fill:rgb(100%,100%,100%);fill-opacity:1;" d="M 17.628906 76.71875 C 17.523438 76.65625 17.457031 76.546875 17.414062 76.421875 C 17.308594 76.082031 17.480469 75.761719 17.78125 75.675781 C 18.082031 75.570312 18.421875 75.71875 18.53125 76.058594 C 18.636719 76.398438 18.464844 76.71875 18.167969 76.804688 C 18.039062 76.847656 17.910156 76.847656 17.800781 76.804688 L 17.738281 76.953125 L 17.566406 76.867188 L 17.628906 76.699219 Z M 17.714844 76.527344 L 17.800781 76.292969 L 17.972656 76.378906 L 17.867188 76.632812 C 17.929688 76.632812 18.015625 76.632812 18.082031 76.632812 C 18.296875 76.570312 18.421875 76.359375 18.339844 76.125 C 18.273438 75.910156 18.039062 75.828125 17.824219 75.890625 C 17.609375 75.953125 17.480469 76.167969 17.566406 76.398438 C 17.585938 76.464844 17.628906 76.527344 17.671875 76.570312 "/>
<path style=" stroke:none;fill-rule:nonzero;fill:rgb(100%,100%,100%);fill-opacity:1;" d="M 18.210938 77.398438 L 18.875 77.3125 L 18.875 77.503906 C 18.894531 77.503906 18.253906 77.589844 18.253906 77.589844 C 18.039062 77.613281 17.929688 77.738281 17.953125 77.910156 C 17.953125 78.078125 18.101562 78.183594 18.296875 78.164062 L 18.960938 78.078125 L 18.960938 78.269531 C 18.980469 78.269531 18.339844 78.355469 18.339844 78.355469 C 17.996094 78.398438 17.800781 78.226562 17.757812 77.929688 C 17.714844 77.632812 17.867188 77.421875 18.210938 77.398438 "/>
<path style=" stroke:none;fill-rule:nonzero;fill:rgb(100%,100%,100%);fill-opacity:1;" d="M 19.003906 79.078125 L 18.9375 79.90625 L 18.746094 79.90625 L 18.808594 79.269531 L 18.507812 79.226562 L 18.464844 79.800781 L 18.273438 79.800781 L 18.316406 79.226562 L 18.015625 79.207031 L 17.972656 79.84375 L 17.78125 79.84375 L 17.84375 78.992188 Z M 19.003906 79.078125 "/>
<path style=" stroke:none;fill-rule:nonzero;fill:rgb(100%,100%,100%);fill-opacity:1;" d="M 5.308594 85.734375 L 5.980469 84.796875 L 6.136719 84.90625 L 5.464844 85.84375 Z M 5.308594 85.734375 "/>
<path style=" stroke:none;fill-rule:nonzero;fill:rgb(100%,100%,100%);fill-opacity:1;" d="M 4.640625 85.15625 L 4.511719 85.027344 L 4.640625 84.050781 L 4.0625 84.601562 L 3.933594 84.453125 L 4.75 83.648438 L 4.855469 83.773438 L 4.726562 84.792969 L 5.304688 84.21875 L 5.457031 84.371094 Z M 4.640625 85.15625 "/>
<path style=" stroke:none;fill-rule:nonzero;fill:rgb(100%,100%,100%);fill-opacity:1;" d="M 4.277344 83.347656 L 4.082031 83.347656 C 4.082031 83.179688 4.082031 83.074219 3.996094 82.945312 C 3.933594 82.839844 3.847656 82.816406 3.761719 82.859375 C 3.695312 82.902344 3.675781 82.96875 3.761719 83.179688 C 3.847656 83.414062 3.867188 83.5625 3.675781 83.6875 C 3.503906 83.796875 3.308594 83.730469 3.179688 83.539062 C 3.09375 83.390625 3.050781 83.265625 3.074219 83.117188 L 3.265625 83.117188 C 3.265625 83.242188 3.265625 83.347656 3.332031 83.433594 C 3.394531 83.539062 3.480469 83.5625 3.546875 83.519531 C 3.609375 83.476562 3.632812 83.414062 3.546875 83.199219 C 3.460938 82.96875 3.460938 82.816406 3.632812 82.710938 C 3.804688 82.585938 4.019531 82.667969 4.148438 82.859375 C 4.234375 83.007812 4.277344 83.179688 4.253906 83.347656 "/>
<path style=" stroke:none;fill-rule:nonzero;fill:rgb(100%,100%,100%);fill-opacity:1;" d="M 2.707031 82.203125 L 2.835938 82.542969 L 2.664062 82.605469 L 2.300781 81.753906 L 2.472656 81.671875 L 2.621094 82.011719 L 3.503906 81.628906 L 3.589844 81.820312 Z M 2.707031 82.203125 "/>
<path style=" stroke:none;fill-rule:nonzero;fill:rgb(100%,100%,100%);fill-opacity:1;" d="M 2.109375 81.140625 L 2.066406 80.949219 L 3.179688 80.652344 L 3.222656 80.839844 Z M 2.109375 81.140625 "/>
<path style=" stroke:none;fill-rule:nonzero;fill:rgb(100%,100%,100%);fill-opacity:1;" d="M 2.042969 79.929688 L 2.085938 80.289062 L 1.914062 80.308594 L 1.785156 79.398438 L 1.980469 79.375 L 2.023438 79.738281 L 2.988281 79.609375 L 3.007812 79.820312 Z M 2.042969 79.929688 "/>
<path style=" stroke:none;fill-rule:nonzero;fill:rgb(100%,100%,100%);fill-opacity:1;" d="M 2.429688 78.78125 L 1.765625 78.738281 L 1.765625 78.546875 C 1.765625 78.546875 2.429688 78.589844 2.429688 78.589844 C 2.644531 78.589844 2.773438 78.503906 2.773438 78.3125 C 2.773438 78.144531 2.6875 78.015625 2.472656 78.015625 L 1.808594 77.972656 L 1.808594 77.78125 C 1.808594 77.78125 2.472656 77.824219 2.472656 77.824219 C 2.816406 77.84375 2.964844 78.058594 2.964844 78.355469 C 2.964844 78.652344 2.75 78.824219 2.429688 78.800781 "/>
<path style=" stroke:none;fill-rule:nonzero;fill:rgb(100%,100%,100%);fill-opacity:1;" d="M 2.214844 76.804688 L 2.128906 77.164062 L 1.9375 77.121094 L 2.171875 76.207031 L 2.363281 76.273438 L 2.257812 76.613281 L 3.203125 76.847656 L 3.136719 77.058594 Z M 2.214844 76.804688 "/>
<path style=" stroke:none;fill-rule:nonzero;fill:rgb(100%,100%,100%);fill-opacity:1;" d="M 7.816406 85.707031 L 8.269531 85.835938 C 8.71875 85.964844 8.890625 86.261719 8.804688 86.601562 C 8.699219 86.941406 8.398438 87.109375 7.925781 86.984375 L 7.496094 86.855469 Z M 8.03125 86.664062 C 8.203125 86.707031 8.355469 86.664062 8.398438 86.515625 C 8.441406 86.347656 8.355469 86.238281 8.183594 86.195312 L 8.117188 86.195312 C 8.117188 86.195312 7.988281 86.664062 7.988281 86.664062 L 8.054688 86.664062 Z M 8.03125 86.664062 "/>
<path style=" stroke:none;fill-rule:nonzero;fill:rgb(100%,100%,100%);fill-opacity:1;" d="M 9.535156 86.113281 L 10.566406 86.175781 L 10.542969 86.496094 L 9.902344 86.472656 L 9.902344 86.578125 L 10.5 86.621094 L 10.480469 86.898438 L 9.878906 86.878906 L 9.878906 87.003906 L 10.523438 87.027344 L 10.5 87.367188 L 9.472656 87.300781 Z M 9.535156 86.113281 "/>
<path style=" stroke:none;fill-rule:nonzero;fill:rgb(100%,100%,100%);fill-opacity:1;" d="M 12.089844 85.984375 L 12.605469 85.835938 C 12.90625 85.75 13.164062 85.835938 13.25 86.089844 C 13.335938 86.367188 13.164062 86.578125 12.863281 86.6875 L 12.734375 86.726562 L 12.820312 87.046875 L 12.433594 87.175781 L 12.089844 86.027344 Z M 12.757812 86.386719 C 12.863281 86.367188 12.90625 86.304688 12.886719 86.21875 C 12.863281 86.132812 12.777344 86.113281 12.691406 86.132812 L 12.585938 86.132812 C 12.585938 86.15625 12.671875 86.410156 12.671875 86.410156 L 12.777344 86.410156 Z M 12.757812 86.386719 "/>
<path style=" stroke:none;fill-rule:nonzero;fill:rgb(100%,100%,100%);fill-opacity:1;" d="M 13.894531 85.285156 L 14.238281 85.09375 L 15.289062 85.898438 L 14.902344 86.113281 L 14.773438 86.003906 L 14.410156 86.21875 L 14.410156 86.386719 C 14.429688 86.386719 14.066406 86.601562 14.066406 86.601562 L 13.914062 85.304688 Z M 14.539062 85.792969 L 14.300781 85.601562 L 14.34375 85.898438 Z M 14.539062 85.792969 "/>
<path style=" stroke:none;fill-rule:nonzero;fill:rgb(100%,100%,100%);fill-opacity:1;" d="M 15.054688 84.5625 L 15.484375 84.15625 C 15.632812 84.007812 15.78125 83.964844 15.890625 83.964844 C 15.996094 83.964844 16.082031 84.007812 16.167969 84.09375 C 16.296875 84.21875 16.296875 84.371094 16.253906 84.519531 L 16.75 84.625 L 16.40625 84.941406 L 15.996094 84.859375 C 15.996094 84.859375 15.933594 84.921875 15.933594 84.921875 L 16.167969 85.175781 L 15.867188 85.453125 L 15.054688 84.582031 Z M 15.867188 84.582031 C 15.933594 84.519531 15.953125 84.453125 15.910156 84.390625 C 15.867188 84.328125 15.78125 84.347656 15.71875 84.390625 L 15.589844 84.519531 L 15.738281 84.6875 L 15.867188 84.5625 Z M 15.867188 84.582031 "/>
<path style=" stroke:none;fill-rule:nonzero;fill:rgb(100%,100%,100%);fill-opacity:1;" d="M 16.28125 83.300781 L 16.519531 82.972656 L 17.492188 83.679688 L 17.25 84.003906 Z M 16.28125 83.300781 "/>
<path style=" stroke:none;fill-rule:nonzero;fill:rgb(100%,100%,100%);fill-opacity:1;" d="M 17.738281 83.007812 L 17.609375 82.710938 C 17.757812 82.648438 17.867188 82.519531 17.929688 82.394531 C 17.953125 82.328125 17.953125 82.285156 17.929688 82.285156 C 17.910156 82.285156 17.867188 82.285156 17.78125 82.394531 C 17.609375 82.605469 17.4375 82.796875 17.199219 82.667969 C 16.984375 82.5625 16.921875 82.328125 17.050781 82.03125 C 17.15625 81.820312 17.285156 81.691406 17.4375 81.628906 L 17.585938 81.925781 C 17.457031 81.988281 17.371094 82.09375 17.328125 82.203125 C 17.308594 82.265625 17.328125 82.285156 17.328125 82.308594 C 17.351562 82.308594 17.394531 82.308594 17.480469 82.203125 C 17.671875 81.945312 17.84375 81.796875 18.058594 81.902344 C 18.296875 82.011719 18.339844 82.265625 18.1875 82.5625 C 18.082031 82.777344 17.929688 82.945312 17.738281 83.03125 "/>
</g>
</svg>
