<svg xmlns="http://www.w3.org/2000/svg" xmlns:xlink="http://www.w3.org/1999/xlink" viewBox="54.5 149.7 233.5 132.5"><defs><linearGradient id="f"><stop offset="0" style="stop-color:#dcb7ff;stop-opacity:.49524231"/><stop offset="1" style="stop-color:#dcb7ff;stop-opacity:1"/></linearGradient><linearGradient id="e"><stop offset="0" style="stop-color:#dcb7ff;stop-opacity:1"/><stop offset="1" style="stop-color:#dcb7ff;stop-opacity:.49256477"/></linearGradient><linearGradient id="d"><stop offset="0" style="stop-color:#fff;stop-opacity:1"/><stop offset="1" style="stop-color:#fff;stop-opacity:.49269028"/></linearGradient><linearGradient id="c"><stop offset="0" style="stop-color:#fff;stop-opacity:1"/><stop offset="1" style="stop-color:#fff;stop-opacity:.48826561"/></linearGradient><linearGradient id="b"><stop offset="0" style="stop-color:#dcb7ff;stop-opacity:.49762001"/><stop offset="1" style="stop-color:#dcb7ff;stop-opacity:1"/></linearGradient><linearGradient id="a"><stop offset="0" style="stop-color:#dcb7ff;stop-opacity:.4999218"/><stop offset="1" style="stop-color:#dcb7ff;stop-opacity:.9990036"/></linearGradient><linearGradient xlink:href="#a" id="g" x1="48.818" x2="55.274" y1="184.075" y2="180.348" gradientTransform="translate(71.29 81.966)" gradientUnits="userSpaceOnUse"/><linearGradient xlink:href="#a" id="m" x1="187.529" x2="208.831" y1="86.956" y2="86.956" gradientTransform="translate(71.29 81.966)" gradientUnits="userSpaceOnUse"/><linearGradient xlink:href="#b" id="l" x1="182.085" x2="187.529" y1="83.755" y2="86.956" gradientTransform="translate(71.29 81.966)" gradientUnits="userSpaceOnUse"/><linearGradient xlink:href="#c" id="i" x1="114.924" x2="114.924" y1="105.158" y2="99.495" gradientTransform="translate(71.29 81.966)" gradientUnits="userSpaceOnUse"/><linearGradient xlink:href="#d" id="j" x1="120.531" x2="125.838" y1="152.758" y2="149.671" gradientTransform="translate(71.29 81.966)" gradientUnits="userSpaceOnUse"/><linearGradient xlink:href="#e" id="k" x1="188.431" x2="182.768" y1="182.266" y2="185.536" gradientTransform="translate(71.29 81.966)" gradientUnits="userSpaceOnUse"/><linearGradient xlink:href="#f" id="h" x1="120.128" x2="125.68" y1="165.721" y2="168.927" gradientUnits="userSpaceOnUse"/></defs><g><path d="M92.778 149.981h36.437L91.17 215.877l38.045 65.936H92.8l-38.067-65.936Z" style="fill:#dcb7ff"/><path d="M111.003 250.269h46.733l-18.212 31.544h-10.309z" style="fill:url(#g)"/><path d="M111.04 181.46h28.484v-31.479h-10.309z" style="fill:url(#h)"/></g><g><path d="M149.833 149.981v31.48h54.59l-18.176-31.48z" style="fill:#fff"/><path d="M168.007 181.46h36.415l57.938 100.353h-36.414z" style="fill:url(#i)"/><path d="m187.878 215.877 18.293 31.685-19.82 34.25h-36.518z" style="fill:url(#j)"/><path d="m244.149 250.269 18.211 31.544h25.397v-31.544Z" style="fill:url(#k)"/><path d="m211.439 175.108 18.258 31.625 32.766-56.752h-36.517z" style="fill:#dcb7ff"/><path d="M244.288 181.46h43.47v-31.479h-25.295l-18.175 31.48" style="fill:url(#l);stroke:url(#m);stroke-width:.264583px"/></g></svg>
